<?xml version="1.0" encoding="utf-8"?>
<!-- Generator: Adobe Illustrator 21.1.0, SVG Export Plug-In . SVG Version: 6.00 Build 0)  -->
<svg version="1.1" id="Capa_1" xmlns="http://www.w3.org/2000/svg" xmlns:xlink="http://www.w3.org/1999/xlink" x="0px" y="0px"
	 viewBox="0 0 220 98.6" style="enable-background:new 0 0 220 98.6;" xml:space="preserve">
<style type="text/css">
	.st0{fill:#FFFFFF;}
	.st1{fill:#FFFFFF;stroke:#FFFFFF;stroke-width:0.25;stroke-miterlimit:10;}
</style>
<g>
	<path class="st0" d="M49.9,49.5c-0.3,2.7-0.5,5.4-0.6,8.1c-0.1,2.7,0,5.6,0.3,8.6c0.2,3,0.7,5.6,1.3,7.9c0.6,1.9,1.3,3.5,2.3,4.5
		c1.2,1.3,2.5,1.7,3.9,1c1.4-0.6,2.6-2.2,3.6-4.7c0.8-2.2,1.4-5.2,1.8-8.8c0.5-4.7,0.6-10.3,0.3-16.7c0-0.2,0.1-0.5,0.2-0.6
		c0.2-0.2,0.3-0.3,0.6-0.3c0.2,0,0.4,0.1,0.6,0.2c0.2,0.2,0.3,0.3,0.3,0.6c0.3,6.6,0.2,12.2-0.3,17c-0.4,3.8-1.1,6.8-1.9,9.2
		c-1.1,3-2.6,4.9-4.4,5.7c-2.2,0.9-4.1,0.4-5.8-1.5c-1.1-1.3-2-3-2.6-5.2c-0.7-2.4-1.1-5.1-1.4-8.2c-0.3-3.1-0.4-6-0.3-8.8
		c0.1-2.8,0.3-5.5,0.6-8.2c0-0.2,0.1-0.4,0.3-0.6c0.2-0.1,0.4-0.2,0.6-0.2c0.2,0,0.4,0.1,0.6,0.3C49.9,49.1,49.9,49.3,49.9,49.5z"/>
	<path class="st0" d="M68.7,79.5v17c0,0.2-0.1,0.4-0.3,0.6c-0.2,0.2-0.4,0.3-0.6,0.3s-0.4-0.1-0.6-0.3c-0.2-0.2-0.3-0.4-0.3-0.6
		c0-3.3,0-16.4,0-23.1c0-6.6,0-11.6,0-14.9c0-0.2,0.1-0.4,0.3-0.6c0.2-0.2,0.4-0.3,0.6-0.3s0.4,0.1,0.6,0.3s0.3,0.4,0.3,0.6V66
		c0.4-1.1,0.9-2.1,1.4-2.9c1.9-3.3,4.2-4.9,6.7-4.9c1.7,0.1,3,0.7,3.9,2c1.6,2.3,1.4,5.4-0.4,9.3c-0.7,1.5-1.6,3-2.6,4.3
		c-1.1,1.3-2.1,2.3-3,3.1C73.1,78.1,71,79,68.7,79.5z M68.7,71.3v6.4c1.9-0.4,3.6-1.2,5-2.2c0.9-0.6,1.8-1.6,2.7-2.8
		c1-1.2,1.8-2.5,2.4-3.9c1.6-3.3,1.8-5.9,0.6-7.6c-0.6-0.8-1.4-1.2-2.5-1.3c-1.9-0.1-3.7,1.3-5.3,4.1C70.5,66,69.5,68.5,68.7,71.3z"
		/>
	<path class="st0" d="M97.9,50.4c-0.1,5.1,0,11.6,0.3,19.3c0.1,2.8,0.2,4.9,0.3,6.5c0.1,1.5,0.2,2.7,0.3,3.5c0,0.1,0,0.3,0.1,0.6
		c0,0.2,0,0.2,0,0.3v0.1c0,0.1,0,0.2,0,0.2c-0.1,0.3-0.3,0.5-0.6,0.6c-0.3,0.1-0.6,0.1-0.8-0.2c-0.1-0.1-0.1-0.1-0.1-0.2
		c-2.3,0.3-4.4,0.2-6.3-0.4s-3.5-1.6-4.7-3c-1.3-1.5-2.2-3.3-2.6-5.4S83.5,68,84,65.6c0.3-1.1,0.7-2.2,1.4-3.3
		c0.6-1.1,1.4-1.9,2.4-2.4c1.1-0.6,2.1-0.8,3.1-0.5c0.9,0.2,1.7,0.8,2.5,1.6c1.1,1.3,2.1,3.5,3,6.5v0.2c-0.2-6.8-0.3-12.6-0.2-17.4
		c0-0.2,0.1-0.4,0.3-0.6c0.2-0.2,0.4-0.2,0.6-0.2s0.4,0.1,0.6,0.3C97.9,50,97.9,50.2,97.9,50.4z M97,79.5c0-0.1-0.2-1.4-0.6-3.9
		c-0.6-3.2-1.1-5.8-1.6-7.6c-0.8-2.8-1.6-4.8-2.6-5.9c-0.5-0.6-1.1-0.9-1.6-1.1c-0.6-0.2-1.2,0-1.9,0.4c-0.7,0.4-1.3,1-1.9,1.9
		c-0.4,0.8-0.8,1.7-1,2.7c-0.5,2.3-0.6,4.3-0.2,6.1c0.3,1.8,1.1,3.3,2.2,4.5c1,1.2,2.3,2,3.9,2.5C93.3,79.7,95.1,79.8,97,79.5z"/>
	<path class="st0" d="M113,60.2c-1.4-1.1-2.9-1-4.6,0.2s-3.2,3.2-4.5,5.9c-1.3,2.7-2.1,5.3-2.3,7.8c-0.2,2.5,0.3,4.2,1.5,5.1
		c1.1,0.8,2.1,0.7,3.1-0.1c1-0.8,2-2.4,3-4.6c0.7-1.6,1.5-3.6,2.3-6.1c0.8-2.6,1.3-4,1.4-4.1v-0.1V64v-0.2c0-0.3,0.1-0.5,0.2-0.7
		c0.2-0.4,0.6-0.6,1.1-0.6c0.3,0,0.5,0.2,0.6,0.5c0.1,0.1,0.1,0.2,0.1,0.3s0.1,0.2,0.1,0.3s0,0.4,0,0.9c0,1.3,0.1,2.4,0.1,3.5
		c0,0.6,0.1,1.4,0.1,2.5c0.1,1.2,0.1,2.2,0.2,2.8c0.2,3.2,0.5,5.6,0.9,7.5c0,0.2,0,0.4-0.1,0.6s-0.3,0.3-0.5,0.3s-0.4,0-0.6-0.1
		s-0.3-0.3-0.4-0.6c-0.3-1.9-0.6-4.4-0.9-7.6l-0.1-2.8c-0.1-1.2-0.1-2.1-0.1-2.5V68l-0.3,1.1c-0.8,2.6-1.6,4.7-2.4,6.3
		c-1.1,2.4-2.3,4.2-3.5,5.1c-1.7,1.4-3.4,1.5-5.2,0.2c-1.6-1.2-2.3-3.4-2.1-6.5c0.2-2.7,1-5.5,2.5-8.4c1.5-3,3.2-5.1,5.1-6.5
		c2.3-1.7,4.5-1.7,6.5-0.1c0.2,0.2,0.3,0.3,0.3,0.6c0,0.2,0,0.4-0.2,0.6c-0.2,0.2-0.3,0.3-0.6,0.3C113.4,60.4,113.2,60.3,113,60.2z"
		/>
	<path class="st0" d="M119.6,56.8c-0.9,0-1.8,0.1-2.6,0.2c-0.2,0-0.4,0-0.6-0.2c-0.2-0.1-0.3-0.3-0.3-0.6s0-0.4,0.2-0.6
		c0.1-0.2,0.3-0.3,0.6-0.3c1-0.1,1.9-0.2,2.9-0.2c0.2-2.8,0.2-4.8,0.3-6.1c0-0.2,0.1-0.4,0.3-0.6c0.2-0.2,0.4-0.2,0.6-0.2
		s0.4,0.1,0.6,0.3s0.2,0.4,0.2,0.6c0,1.3-0.1,3.3-0.3,6c0.9,0,1.9,0.1,3.1,0.2c0.2,0,0.4,0.1,0.6,0.3s0.2,0.4,0.2,0.6
		c0,0.2-0.1,0.4-0.3,0.6c-0.2,0.2-0.4,0.2-0.6,0.2c-1.2-0.1-2.2-0.2-3.1-0.2c-0.4,8.6-0.3,15.1,0.2,19.5c0.2,1.7,0.8,3,1.7,3.8
		c0.9,0.8,2.1,0.8,3.4,0c0.2-0.1,0.4-0.1,0.6,0s0.4,0.2,0.5,0.4c0.1,0.2,0.1,0.4,0.1,0.6c-0.1,0.2-0.2,0.4-0.4,0.5
		c-2,1.1-3.8,1-5.3-0.3c-1.2-1.1-2-2.7-2.3-4.9C119.2,72,119.2,65.4,119.6,56.8z"/>
	<path class="st0" d="M129.7,67.7c0.3-2,0.9-3.8,1.7-5.3c1.4-2.7,3.2-4.3,5.3-4.5c1-0.1,1.9,0,2.6,0.5c0.7,0.4,1.2,1.1,1.5,1.9
		c0.5,1.5,0.3,3.2-0.6,5.1c-0.9,1.9-2.2,3.3-3.9,4.2c-1.6,0.8-3.3,0.9-5.1,0.4c0,0.3,0,0.6,0,0.9c-0.1,2.9,0.4,5.2,1.4,7
		c1.1,1.8,2.7,2.5,4.8,2.2c1.2-0.2,2.3-0.7,3.4-1.7c1-0.9,1.9-2.1,2.7-3.4c0.1-0.2,0.3-0.3,0.5-0.4s0.4,0,0.6,0.1
		c0.2,0.1,0.3,0.3,0.4,0.5c0.1,0.2,0,0.4,0,0.6c-0.9,1.5-1.9,2.7-3.2,3.8c-1.2,1.1-2.6,1.8-4.1,2c-2.9,0.4-5.1-0.6-6.5-3
		c-1.2-2-1.8-4.6-1.7-7.9c0-0.5,0-1,0.1-1.6c-0.3-0.3-0.4-0.6-0.2-1C129.4,67.8,129.6,67.7,129.7,67.7z M131.3,68
		c1.5,0.5,2.9,0.5,4.2-0.1c1.4-0.7,2.4-1.8,3.1-3.4c0.7-1.5,0.8-2.8,0.5-3.8s-1.1-1.4-2.2-1.2c-1.5,0.2-2.9,1.4-4,3.6
		C132.2,64.5,131.6,66.2,131.3,68z"/>
</g>
<g>
	<path class="st1" d="M169.3,55.6c0-0.4-0.1-0.7-0.3-1s-0.4-0.5-0.6-0.5c-0.2-0.1-0.5-0.1-0.8,0s-0.6,0.3-0.8,0.7
		c-0.7,0.9-1.1,2.5-1.1,4.7c0,1.5,0.2,2.6,0.7,3.3c0.4,0.6,0.8,0.9,1.4,0.9c0.5-0.1,1.1-0.4,1.5-1.2c0.5-0.7,0.8-1.7,0.9-2.9h-1.5
		c-0.1,0-0.1,0-0.2-0.1c-0.1-0.1-0.1-0.1-0.1-0.2c0-0.1,0-0.1,0.1-0.2c0.1-0.1,0.1-0.1,0.2-0.1c1.2,0,1.9,0,2.3,0
		c0.1,0,0.1,0,0.2,0.1c0.1,0,0.1,0.1,0.1,0.2s0,0.1-0.1,0.2c0,0.1-0.1,0.1-0.2,0.1h-0.3c-0.1,1.3-0.5,2.4-1,3.2
		c-0.6,0.8-1.2,1.3-1.9,1.4c-0.4,0-0.7,0-1-0.2s-0.6-0.5-0.8-0.9c-0.5-0.8-0.7-2-0.7-3.6c0-0.5,0-0.9,0.1-1.3c0-0.4,0.1-0.8,0.2-1.3
		c0.1-0.5,0.2-0.9,0.4-1.3c0.2-0.4,0.4-0.8,0.7-1.1c0.3-0.4,0.7-0.7,1.1-0.9c0.4-0.2,0.8-0.2,1.1,0c0.3,0.1,0.6,0.4,0.8,0.7
		c0.2,0.4,0.3,0.8,0.4,1.3c0,0.1,0,0.1-0.1,0.2c0,0.1-0.1,0.1-0.2,0.1c-0.1,0-0.1,0-0.2-0.1C169.3,55.7,169.3,55.6,169.3,55.6z"/>
	<path class="st1" d="M173.9,53.8c-0.2,4-0.1,7.4,0.1,10.2c0,0.1,0,0.1-0.1,0.2c0,0.1-0.1,0.1-0.2,0.1c-0.1,0-0.1,0-0.2-0.1
		c-0.1,0-0.1-0.1-0.1-0.2c-0.2-2.8-0.2-6.2-0.1-10.3c0-0.1,0-0.1,0.1-0.2c0.1,0,0.1-0.1,0.2-0.1c0.1,0,0.1,0,0.2,0.1
		C173.9,53.7,173.9,53.7,173.9,53.8z"/>
	<path class="st1" d="M177.7,56.7c0.6,0.1,1.1,0.4,1.5,0.8c0.4,0.4,0.7,0.9,0.8,1.4s0.2,1,0.1,1.6c-0.1,0.9-0.3,1.6-0.8,2.3
		s-1,1-1.8,1.1s-1.4-0.2-1.8-0.9c-0.3-0.6-0.5-1.3-0.5-2.2s0.2-1.7,0.6-2.5c0.4-0.8,0.8-1.3,1.4-1.6
		C177.5,56.6,177.6,56.7,177.7,56.7z M177.4,57.2c-0.4,0.3-0.8,0.7-1.1,1.4s-0.5,1.4-0.5,2.1c0,0.8,0.1,1.5,0.4,1.9
		c0.3,0.5,0.7,0.7,1.3,0.7c0.5,0,1-0.3,1.4-0.9c0.4-0.6,0.6-1.2,0.7-2c0.1-0.8-0.1-1.5-0.5-2.1C178.8,57.8,178.2,57.4,177.4,57.2z"
		/>
	<path class="st1" d="M182,63.6c-0.2-2.5-0.2-5.7,0-9.5c0-0.1,0-0.1,0.1-0.2c0.1,0,0.1-0.1,0.2-0.1c0.1,0,0.1,0,0.2,0.1
		c0,0.1,0.1,0.1,0.1,0.2c-0.1,1.8-0.1,3.3-0.1,4.6c0.1-0.2,0.3-0.5,0.4-0.7c0.3-0.4,0.6-0.6,1-0.8s0.8-0.2,1.3-0.1
		c0.4,0.1,0.8,0.3,1.1,0.7c0.4,0.6,0.5,1.4,0.3,2.4c-0.2,0.9-0.5,1.6-1.1,2.1c-0.3,0.4-0.8,0.7-1.3,1s-1,0.5-1.6,0.5
		c0,0.1-0.1,0.2-0.2,0.2c-0.1,0-0.1,0-0.2-0.1c-0.1,0-0.1-0.1-0.1-0.2L182,63.6L182,63.6L182,63.6z M182.4,60.5c0,1,0.1,1.9,0.1,2.8
		c0.5-0.1,0.9-0.2,1.4-0.5c0.5-0.2,0.8-0.5,1.1-0.8c0.4-0.5,0.8-1.1,0.9-1.9c0.2-0.8,0.1-1.5-0.2-1.9s-0.7-0.6-1.2-0.6
		c-0.5,0.1-0.9,0.3-1.2,0.8C182.7,59.1,182.4,59.8,182.4,60.5L182.4,60.5z"/>
	<path class="st1" d="M191.9,57.3c-0.4-0.3-0.9-0.3-1.4,0.1c-0.5,0.4-1,1-1.4,1.9s-0.7,1.7-0.7,2.4c-0.1,0.8,0.1,1.3,0.5,1.6
		c0.3,0.2,0.7,0.2,1,0s0.6-0.7,0.9-1.4c0.2-0.5,0.5-1.1,0.7-1.9c0.3-0.8,0.4-1.2,0.4-1.3l0,0v-0.1v-0.1c0-0.1,0-0.2,0.1-0.2
		c0.1-0.1,0.2-0.2,0.3-0.2s0.2,0.1,0.2,0.1s0,0,0,0.1v0.1c0,0,0,0.1,0,0.3c0,0.4,0,0.8,0,1.1c0,0.2,0,0.5,0,0.8c0,0.4,0,0.7,0.1,0.9
		c0.1,1,0.2,1.8,0.3,2.3c0,0.1,0,0.1,0,0.2c0,0.1-0.1,0.1-0.2,0.1c-0.1,0-0.1,0-0.2,0c-0.1,0-0.1-0.1-0.1-0.2
		c-0.1-0.6-0.2-1.4-0.3-2.4v-0.9c0-0.4,0-0.6,0-0.8l0,0L192,60c-0.3,0.8-0.5,1.5-0.7,2c-0.3,0.8-0.7,1.3-1.1,1.6
		c-0.5,0.4-1.1,0.5-1.6,0.1s-0.7-1.1-0.7-2.1c0.1-0.9,0.3-1.7,0.8-2.6c0.5-0.9,1-1.6,1.6-2.1c0.7-0.5,1.4-0.5,2.1,0
		c0.1,0,0.1,0.1,0.1,0.2c0,0.1,0,0.1-0.1,0.2c0,0.1-0.1,0.1-0.2,0.1C192.1,57.4,192,57.4,191.9,57.3z"/>
	<path class="st1" d="M195.5,53.8c-0.2,4-0.1,7.4,0.1,10.2c0,0.1,0,0.1-0.1,0.2c0,0.1-0.1,0.1-0.2,0.1c-0.1,0-0.1,0-0.2-0.1
		c-0.1,0-0.1-0.1-0.1-0.2c-0.2-2.8-0.2-6.2-0.1-10.3c0-0.1,0-0.1,0.1-0.2c0.1,0,0.1-0.1,0.2-0.1c0.1,0,0.1,0,0.2,0.1
		C195.5,53.7,195.5,53.7,195.5,53.8z"/>
	<path class="st1" d="M166.7,71.4c0.1,0.1,0.2,0.3,0.3,0.5l0.5,0.9l0.5,1c0.3,0.6,0.6,1,0.8,1.3c0.1,0.2,0.2,0.3,0.3,0.4l0.1,0.1
		c0,0,0,0,0.1-0.1s0.2-0.2,0.3-0.4c0.2-0.3,0.5-0.8,0.9-1.3c0.3-0.6,0.8-1.4,1.4-2.5c0-0.1,0.1-0.1,0.2-0.1h0.1c0.1,0,0.1,0,0.2,0.1
		c0,0.1,0.1,0.1,0.1,0.2c0,0.5-0.1,2.2,0,4.9c0,2.8,0.1,4.4,0.1,4.9c0,0.1,0,0.1-0.1,0.2s-0.1,0.1-0.2,0.1c-0.1,0-0.1,0-0.2-0.1
		c-0.1-0.1-0.1-0.1-0.1-0.2c0-0.7,0-2.1,0-4.2c0-2,0-3.6,0-4.7c-0.4,0.6-0.7,1.2-1,1.7c-0.4,0.6-0.7,1-0.9,1.4
		c-0.2,0.2-0.3,0.4-0.4,0.5c-0.2,0.2-0.3,0.2-0.5,0.2c-0.1,0-0.2-0.1-0.4-0.3c-0.1-0.1-0.2-0.3-0.3-0.5c-0.2-0.3-0.5-0.8-0.8-1.4
		l-0.9-1.6c0,1.1,0,2.7,0,4.8c0,2.1,0,3.5,0,4.2c0,0.1,0,0.1-0.1,0.2s-0.1,0.1-0.2,0.1c-0.1,0-0.1,0-0.2-0.1
		c-0.1-0.1-0.1-0.1-0.1-0.2c0-0.5,0-2.2-0.1-5c0-2.8,0-4.4,0-4.9c0-0.1,0-0.1,0.1-0.2c0.1,0,0.1-0.1,0.2-0.1S166.5,71.2,166.7,71.4
		C166.6,71.3,166.7,71.3,166.7,71.4z"/>
	<path class="st1" d="M178.1,74.8c-0.4-0.3-0.9-0.3-1.4,0.1s-1,1-1.4,1.9s-0.7,1.7-0.7,2.4c-0.1,0.8,0.1,1.3,0.5,1.6
		c0.3,0.2,0.7,0.2,1,0s0.6-0.7,0.9-1.4c0.2-0.5,0.5-1.1,0.7-1.9c0.3-0.8,0.4-1.2,0.4-1.3l0,0v-0.1V76c0-0.1,0-0.2,0.1-0.2
		c0.1-0.1,0.2-0.2,0.3-0.2s0.2,0.1,0.2,0.1s0,0,0,0.1v0.1c0,0,0,0.1,0,0.3c0,0.4,0,0.8,0,1.1c0,0.2,0,0.5,0,0.8c0,0.4,0,0.7,0.1,0.9
		c0.1,1,0.2,1.8,0.3,2.3c0,0.1,0,0.1,0,0.2s-0.1,0.1-0.2,0.1c-0.1,0-0.1,0-0.2,0c-0.1,0-0.1-0.1-0.1-0.2c-0.1-0.6-0.2-1.4-0.3-2.4
		v-0.9c0-0.4,0-0.6,0-0.8l0,0l-0.1,0.3c-0.3,0.8-0.5,1.5-0.7,2c-0.3,0.8-0.7,1.3-1.1,1.6c-0.5,0.4-1.1,0.5-1.6,0.1s-0.7-1.1-0.7-2.1
		c0.1-0.9,0.3-1.7,0.8-2.6s1-1.6,1.6-2.1c0.7-0.5,1.4-0.5,2.1,0c0.1,0,0.1,0.1,0.1,0.2s0,0.1-0.1,0.2c0,0.1-0.1,0.1-0.2,0.1
		C178.2,74.8,178.2,74.8,178.1,74.8z"/>
	<path class="st1" d="M180.9,81.1v-0.2v-0.1c0,0,0,0,0-0.1l0,0l0,0l0,0l0,0l0,0l0,0l0,0v-0.4c0-0.2,0-0.5,0-1s0-0.8,0-1.1
		c0-0.5,0-1.3,0.1-2.4c0-0.1,0-0.1,0.1-0.2c0.1,0,0.1-0.1,0.2-0.1c0.1,0,0.1,0,0.2,0.1c0,0.1,0.1,0.1,0.1,0.2c0,0.7,0,1.2,0,1.5
		v-0.1c0.5-1.6,1.4-2.6,2.6-3.1c0.1,0,0.1,0,0.2,0c0.1,0,0.1,0.1,0.1,0.1c0,0.1,0,0.1,0,0.2s-0.1,0.1-0.1,0.1
		c-1.1,0.5-1.8,1.4-2.3,2.8c-0.3,1-0.5,2.2-0.5,3.7l0,0l0,0v0.1l0,0l0,0l0,0l0,0l0,0l0,0v0.1c0,0.1-0.1,0.1-0.2,0.1
		c-0.1,0-0.2,0-0.2-0.1v-0.1l0,0l0,0l0,0H180.9z"/>
	<path class="st1" d="M186.3,71.4c-0.1,1.5-0.1,3.4-0.1,5.8l0,0l0.8-0.7c0.8-0.7,1.2-1.1,1.3-1.2c0-0.1,0.1-0.1,0.2-0.1
		c0.1,0,0.1,0,0.2,0.1c0.1,0,0.1,0.1,0.1,0.2s0,0.1-0.1,0.2s-0.5,0.5-1.4,1.3c-0.3,0.3-0.6,0.6-0.8,0.7c-0.1,0.1-0.2,0.2-0.2,0.2
		c0.2,0.5,0.6,1,1.3,1.6c0.4,0.3,1.1,0.8,2,1.4c0.1,0,0.1,0.1,0.1,0.2s0,0.1,0,0.2s-0.1,0.1-0.2,0.1c-0.1,0-0.1,0-0.2,0
		c-1-0.6-1.6-1.1-2-1.4c-0.5-0.4-0.9-0.8-1.1-1.1c0,1,0,1.8,0,2.4c0,0.1,0,0.1-0.1,0.2s-0.1,0.1-0.2,0.1s-0.1,0-0.2-0.1
		c-0.1-0.1-0.1-0.1-0.1-0.2c0-0.5,0-1.5,0-3c0-1.4,0-2.7,0-3.7s0-2,0.1-3c0-0.1,0-0.1,0.1-0.2c0.1,0,0.1-0.1,0.2-0.1
		S186.1,71.3,186.3,71.4C186.3,71.3,186.3,71.4,186.3,71.4z"/>
	<path class="st1" d="M191.5,77.1c0.1-0.6,0.3-1.2,0.5-1.7c0.4-0.9,1-1.3,1.7-1.4c0.3,0,0.6,0,0.8,0.1s0.4,0.3,0.5,0.6
		c0.1,0.5,0.1,1-0.2,1.6s-0.7,1-1.2,1.3c-0.5,0.2-1,0.3-1.6,0.1c0,0.1,0,0.2,0,0.3c0,0.9,0.1,1.6,0.5,2.2c0.3,0.6,0.9,0.8,1.5,0.7
		c0.4-0.1,0.7-0.2,1.1-0.5c0.3-0.3,0.6-0.6,0.8-1.1c0-0.1,0.1-0.1,0.2-0.1c0.1,0,0.1,0,0.2,0s0.1,0.1,0.1,0.2s0,0.1,0,0.2
		c-0.3,0.5-0.6,0.9-1,1.2c-0.4,0.3-0.8,0.6-1.3,0.6c-0.9,0.1-1.6-0.2-2.1-0.9c-0.4-0.6-0.6-1.5-0.5-2.5c0-0.2,0-0.3,0-0.5
		c-0.1-0.1-0.1-0.2-0.1-0.3C191.4,77.2,191.5,77.1,191.5,77.1z M192,77.2c0.5,0.2,0.9,0.2,1.3,0c0.4-0.2,0.8-0.6,1-1.1
		s0.3-0.9,0.2-1.2c-0.1-0.3-0.3-0.4-0.7-0.4c-0.5,0.1-0.9,0.4-1.3,1.1C192.3,76.1,192.1,76.7,192,77.2z"/>
	<path class="st1" d="M198.5,73.7c-0.3,0-0.6,0-0.8,0.1c-0.1,0-0.1,0-0.2-0.1c-0.1,0-0.1-0.1-0.1-0.2s0-0.1,0.1-0.2
		c0-0.1,0.1-0.1,0.2-0.1c0.3,0,0.6-0.1,0.9-0.1c0-0.9,0.1-1.5,0.1-1.9c0-0.1,0-0.1,0.1-0.2c0.1,0,0.1-0.1,0.2-0.1
		c0.1,0,0.1,0,0.2,0.1c0,0.1,0.1,0.1,0.1,0.2c0,0.4,0,1-0.1,1.9c0.3,0,0.6,0,1,0.1c0.1,0,0.1,0,0.2,0.1c0,0.1,0.1,0.1,0.1,0.2
		s0,0.1-0.1,0.2c-0.1,0-0.1,0.1-0.2,0.1c-0.4,0-0.7,0-1-0.1c-0.1,2.7-0.1,4.7,0.1,6.1c0.1,0.5,0.2,0.9,0.5,1.2
		c0.3,0.3,0.6,0.3,1.1,0c0.1,0,0.1,0,0.2,0c0.1,0,0.1,0.1,0.2,0.1c0,0.1,0,0.1,0,0.2s-0.1,0.1-0.1,0.2c-0.6,0.4-1.2,0.3-1.7-0.1
		c-0.4-0.3-0.6-0.8-0.7-1.5C198.4,78.5,198.3,76.4,198.5,73.7z"/>
	<path class="st1" d="M203.2,72.3c0.1,0,0.1,0.1,0.1,0.2s0,0.1-0.1,0.2s-0.1,0.1-0.2,0.1c-0.1,0-0.1,0-0.2-0.1
		c-0.1-0.1-0.1-0.1-0.1-0.2s0-0.1,0.1-0.2s0.1-0.1,0.2-0.1C203,72.2,203.1,72.3,203.2,72.3z M203.4,74.4c-0.1,2.9,0,5.1,0.2,6.8
		c0,0.1,0,0.1-0.1,0.2c0,0.1-0.1,0.1-0.2,0.1c-0.1,0-0.1,0-0.2-0.1c-0.1,0-0.1-0.1-0.1-0.2c-0.2-1.7-0.3-4-0.2-6.9
		c0-0.1,0-0.1,0.1-0.2c0.1,0,0.1-0.1,0.2-0.1c0.1,0,0.1,0,0.2,0.1C203.4,74.3,203.4,74.4,203.4,74.4z"/>
	<path class="st1" d="M205.8,77.4c0.3-0.8,0.6-1.4,0.9-2c0.3-0.5,0.7-0.9,1-1.1c0.5-0.3,0.9-0.2,1.3,0.1c0.3,0.2,0.5,0.7,0.7,1.3
		c0.1,0.5,0.2,1.1,0.3,1.9c0,0.4,0,0.8,0,1.3c0,0.4,0,0.9,0,1.4s0,0.8,0,0.9s0,0.1-0.1,0.2s-0.1,0.1-0.2,0.1s-0.1,0-0.2-0.1
		c-0.1-0.1-0.1-0.1-0.1-0.2s0-0.4,0-0.9s0-0.9,0-1.4c0-0.4,0-0.9,0-1.3c0-0.7-0.1-1.3-0.2-1.8c-0.1-0.5-0.3-0.9-0.5-1.1
		c-0.3-0.2-0.5-0.2-0.8-0.1s-0.5,0.4-0.8,0.9c-0.2,0.4-0.4,0.8-0.6,1.2c-0.2,0.5-0.3,0.8-0.4,1.1c0,0.2-0.1,0.4-0.1,0.6
		s-0.1,0.4-0.1,0.7c0,0.2,0,0.4-0.1,0.6c0,0.1,0,0.4,0,0.7c0,0.3,0,0.5,0,0.6v0.1l0,0c0,0,0,0,0,0.1s-0.1,0.1-0.2,0.1
		c-0.1,0-0.2,0-0.3-0.1v-0.1l0,0V81v-0.7V79c0-2.1,0-3.5-0.1-4.2c0-0.1,0-0.1,0.1-0.2c0-0.1,0.1-0.1,0.2-0.1c0.1,0,0.1,0,0.2,0.1
		c0.1,0,0.1,0.1,0.1,0.2C205.8,75.5,205.8,76.3,205.8,77.4z"/>
	<path class="st1" d="M215.9,75.2c-0.3-0.3-0.7-0.3-1.2,0s-1,0.8-1.5,1.5s-0.8,1.4-0.9,2.1c-0.2,0.7-0.1,1.2,0.2,1.5
		c0.1,0.2,0.3,0.2,0.6,0.1s0.6-0.3,0.9-0.7c0.3-0.3,0.6-0.6,0.8-1c0.3-0.4,0.4-0.7,0.5-0.9c0.2-0.4,0.3-0.8,0.4-1.2
		c0-0.2,0.1-0.3,0.1-0.4s0.1-0.2,0.2-0.2c0.1,0,0.2,0,0.3,0l0.1,0.1l0,0c0,0,0,0,0,0.1v0.1c0,0.1,0,0.2,0.1,0.3
		c0,0.2,0.1,0.5,0.1,0.8c0.1,0.7,0.2,1.1,0.2,1.3c0.1,1.4,0.1,2.4,0,3.1c-0.1,0.6-0.4,1.1-0.8,1.6c-0.4,0.4-0.8,0.7-1.2,0.9
		c-0.4,0.2-0.8,0.2-1.2,0.1c-0.3,0-0.6-0.2-0.8-0.3c-0.2-0.2-0.3-0.4-0.4-0.7c0-0.2,0-0.4,0.1-0.4s0.2,0.1,0.4,0.3
		c0,0.3,0.3,0.5,0.7,0.6c0.3,0,0.6,0,1-0.1c0.3-0.1,0.7-0.4,1-0.7c0.3-0.4,0.5-0.8,0.7-1.3c0.2-0.7,0.2-1.6,0-2.9
		c0-0.2-0.1-0.6-0.2-1.3v-0.3c-0.1,0.3-0.2,0.5-0.3,0.8c-0.1,0.2-0.3,0.5-0.6,0.9s-0.6,0.7-0.9,1.1c-0.4,0.4-0.7,0.7-1.1,0.8
		c-0.5,0.2-0.9,0.1-1.2-0.2c-0.4-0.4-0.5-1.1-0.3-1.9c0.2-0.7,0.5-1.5,1-2.2c0.5-0.8,1.1-1.3,1.6-1.6c0.7-0.4,1.3-0.4,1.8,0.1
		c0,0.1,0.1,0.1,0.1,0.2s0,0.1-0.1,0.2s-0.1,0.1-0.2,0.1C216.1,75.2,216,75.2,215.9,75.2z"/>
</g>
<rect x="154.8" y="46.1" class="st0" width="2.5" height="39.9"/>
<path class="st0" d="M27.4,57.5c-2.9,4.8-8.6,7.3-14.2,6c-1.2,5,1.7,10.1,6.6,11.5c5.1,1.5,10.4-1.5,11.9-6.5
	C33,64.2,31.1,59.7,27.4,57.5z"/>
<path class="st0" d="M25.2,56.6c0.8,0.2,1.5,0.6,2.2,1c0.5-0.9,1-1.8,1.3-2.8c0.7-2.3,0.8-4.7,0.3-6.9c-2.9,0.7-6,0.7-9.1-0.3
	C15.4,46.2,12,43,10,39.1c-2.9,1.6-5.2,4.2-6.3,7.6C1.4,53.6,5.2,61,12.1,63.2c0.3,0.1,0.7,0.2,1.1,0.3c0-0.1,0.1-0.2,0.1-0.4
	C14.7,58,20.1,55.1,25.2,56.6z"/>
<path class="st0" d="M27.4,57.5c-0.7-0.4-1.4-0.7-2.2-1C20.1,55,14.8,58,13.3,63c0,0.1-0.1,0.2-0.1,0.4
	C18.8,64.8,24.5,62.3,27.4,57.5z"/>
<path class="st0" d="M38.5,41.2c-8.1-4.9-12.3-14.8-9.5-24.4c0.1-0.4,0.2-0.8,0.4-1.2C20.8,13.2,11.7,18,9,26.6
	c-1.4,4.3-0.9,8.7,1,12.4c3-1.6,6.7-2.1,10.2-0.9c4.6,1.5,7.8,5.3,8.8,9.6C32.8,46.9,36.2,44.5,38.5,41.2z"/>
<path class="st0" d="M20.2,38.2C16.6,37,13,37.5,9.9,39.1c1.9,3.9,5.4,7,9.9,8.5c3.1,1,6.2,1,9.1,0.3C28,43.4,24.8,39.7,20.2,38.2z"
	/>
<path class="st0" d="M55.6,2.2C44.6-1,33.1,5,29.4,15.7c0.2,0,0.3,0.1,0.5,0.1c8.8,2.8,13.7,12.1,10.9,20.9
	c-0.5,1.7-1.3,3.2-2.2,4.5c1.6,0.9,3.3,1.7,5.1,2.2c11.4,3.3,23.3-3.2,26.6-14.6C73.5,17.4,67,5.5,55.6,2.2z"/>
<path class="st0" d="M29.9,15.8c-0.2-0.1-0.3-0.1-0.5-0.1c-0.1,0.4-0.3,0.8-0.4,1.2c-2.8,9.6,1.4,19.5,9.5,24.4
	c0.9-1.4,1.7-2.9,2.2-4.5C43.5,27.9,38.6,18.6,29.9,15.8z"/>
</svg>
